<svg xmlns="http://www.w3.org/2000/svg" viewBox="0 0 759.92 120.02"><defs><style>.cls-1{fill:#e8e8e8;}</style></defs><title>footer_lockup</title><g id="Layer_2" data-name="Layer 2"><g id="Layer_1-2" data-name="Layer 1"><path class="cls-1" d="M0,0V120H395.5V0ZM119.48,79.18H108.39V64.53H79V79.18H67.94V40.85H79V55.49h29.36V40.85h11.09Zm49.89-13.12V79.18H158.28V66.06L136.37,41.77l.69-.92h11.76l15,17,15.06-17h11.7l.7.92Zm85.42-16.17H219.25v5.65h33.29v8.89H219.25V79.18H208.16V40.85h46.63Zm72.77,29.29H315.37L285.52,53.7V79.18H274.43V40.85H285.6l30.87,26.24V40.85h11.09Z"/><path class="cls-1" d="M473.87,48.48l-2.36-7.18H459.88l-2.35,7.18H452.7l10-29.4h5.92l10,29.4ZM461.14,37.39h9.11L465.89,24h-.38Z"/><path class="cls-1" d="M513.22,19.08h4.37v29.4H513L498.48,27h-.38v21.5h-4.37V19.08h4.87l14.2,21.38h.42Z"/><path class="cls-1" d="M531.87,27.06a9.56,9.56,0,0,1,7.31,3q2.8,3,2.43,9H525.9a7.31,7.31,0,0,0,1.85,4.56,6,6,0,0,0,4.5,1.66,6.45,6.45,0,0,0,3.17-.78,4.5,4.5,0,0,0,2-2.29h4.16a8,8,0,0,1-3.36,5,10.55,10.55,0,0,1-6,1.76,10,10,0,0,1-7.64-3,11.21,11.21,0,0,1-2.81-8,10.86,10.86,0,0,1,2.87-7.79A9.57,9.57,0,0,1,531.87,27.06Zm-5.8,8.74h11.51a5.42,5.42,0,0,0-1.6-3.72,5.33,5.33,0,0,0-4-1.53,5.64,5.64,0,0,0-3.88,1.4A6.65,6.65,0,0,0,526.07,35.8Z"/><path class="cls-1" d="M558.07,48.48l-4.74-7.6H553l-4.87,7.6h-5L550,37.6l-6.34-10.12h4.91l4.33,6.89h.38l4.28-6.89h4.92l-6.3,10.12,6.88,10.88Z"/><path class="cls-1" d="M581.43,42.94a5.1,5.1,0,0,1-2.23,4.39,9.57,9.57,0,0,1-5.67,1.57,9,9,0,0,1-6.13-2,6.93,6.93,0,0,1-2.4-5.25h4.2a3.46,3.46,0,0,0,1.37,2.89,5,5,0,0,0,3,1,4.49,4.49,0,0,0,2.51-.67,2.13,2.13,0,0,0,1-1.89A2.46,2.46,0,0,0,576,40.8a12.69,12.69,0,0,0-3.45-1.48,18.24,18.24,0,0,1-1.91-.6,16.33,16.33,0,0,1-1.8-.84,7,7,0,0,1-1.62-1.14,5,5,0,0,1-1.07-1.55,4.68,4.68,0,0,1-.44-2,5.33,5.33,0,0,1,2.14-4.41,8.51,8.51,0,0,1,5.42-1.68,7.94,7.94,0,0,1,5.5,1.85,6.26,6.26,0,0,1,2.18,4.53h-4.07a2.94,2.94,0,0,0-1.14-2.18,4.09,4.09,0,0,0-2.64-.84,3.62,3.62,0,0,0-2.19.65,2.13,2.13,0,0,0-.88,1.79,2.27,2.27,0,0,0,1,1.91,12.46,12.46,0,0,0,3.34,1.45,14.73,14.73,0,0,1,5.23,2.52A5.13,5.13,0,0,1,581.43,42.94Z"/><path class="cls-1" d="M596.34,47.89a7.07,7.07,0,0,1-3.7,1q-5.58,0-5.58-6V31h-4.12V27.82h1.26c2.18,0,3.28-1,3.28-2.94V22.19h3.9v5.29h5.08V31h-5.08V42.47c0,1.74.69,2.61,2.06,2.61a3.32,3.32,0,0,0,1.85-.59Z"/><path class="cls-1" d="M616.2,42.89a2.23,2.23,0,0,0,.44,1.58,2,2,0,0,0,1.41.44v3.57h-.8c-2.29,0-3.71-.92-4.24-2.77a8.87,8.87,0,0,1-7.22,3.19,8.24,8.24,0,0,1-5.19-1.55,5.27,5.27,0,0,1-2-4.41q0-6.22,9.45-7l4-.3v-.5A5.22,5.22,0,0,0,611,31.7a3.7,3.7,0,0,0-3-1.28,4,4,0,0,0-3,1.13,4.68,4.68,0,0,0-1.28,2.69h-4.12a7.69,7.69,0,0,1,2.52-5.16,8.38,8.38,0,0,1,5.88-2,7.76,7.76,0,0,1,8.27,8.4Zm-9.91,2.52a6,6,0,0,0,4-1.47,5,5,0,0,0,1.73-4.07V38.78l-3.2.25c-3.94.31-5.92,1.53-5.92,3.65a2.37,2.37,0,0,0,1,2A4,4,0,0,0,606.29,45.41Z"/><path class="cls-1" d="M632.58,27.06H634v4.37a7.25,7.25,0,0,0-1.89-.21A5.5,5.5,0,0,0,628,33a7.27,7.27,0,0,0-1.68,5.23V48.48h-4.45v-21h3.4l.67,2.94h.38A7.19,7.19,0,0,1,632.58,27.06Z"/><path class="cls-1" d="M658.45,19.08q7,0,10.82,3.91t3.84,10.66q0,6.93-3.8,10.88t-10.86,3.95h-9V19.08Zm0,25.16c3.28,0,5.78-1,7.52-2.88a11.22,11.22,0,0,0,2.6-7.83,10.37,10.37,0,0,0-2.62-7.41q-2.62-2.81-7.5-2.8H654V44.24Z"/><path class="cls-1" d="M682.2,23.66a2.67,2.67,0,0,1-2,.84,2.84,2.84,0,0,1-2-.84,2.79,2.79,0,0,1,0-4,2.84,2.84,0,0,1,2-.84,2.67,2.67,0,0,1,2,.84,2.89,2.89,0,0,1,0,4Zm.15,3.82v21H678v-21Z"/><path class="cls-1" d="M706.29,28.4A8.89,8.89,0,0,1,703,30.59a7.13,7.13,0,0,1,1.1,3.9,6.12,6.12,0,0,1-2.33,5,9.22,9.22,0,0,1-6,1.89,11.46,11.46,0,0,1-3.23-.46c-1,.45-1.52,1-1.52,1.6,0,1.17,1.11,1.76,3.32,1.76h3.45a8.56,8.56,0,0,1,5.64,1.64,5.57,5.57,0,0,1,2,4.53,5.88,5.88,0,0,1-2.52,5A11.16,11.16,0,0,1,696,57.3a10.36,10.36,0,0,1-7-2.2,6.7,6.7,0,0,1-2.48-5.32l3.15-2.56a3.7,3.7,0,0,1-2.56-3.65c0-1.71,1-3,2.9-4a6.25,6.25,0,0,1-2.48-5.21,6.84,6.84,0,0,1,2.22-5.25,8.28,8.28,0,0,1,5.84-2.06,9.36,9.36,0,0,1,5.34,1.47,10.7,10.7,0,0,0,3.23-2.85Zm-5.16,22.22a2.47,2.47,0,0,0-1.12-2.2,5.3,5.3,0,0,0-3-.74h-3.32l-3,2.4c.48,2.49,2.32,3.73,5.54,3.73a6.56,6.56,0,0,0,3.53-.84A2.63,2.63,0,0,0,701.13,50.62Zm-8.26-13.54a4,4,0,0,0,3,1.15,3.92,3.92,0,0,0,4.08-4,4,4,0,0,0-1.12-2.88,3.85,3.85,0,0,0-2.91-1.15,4.06,4.06,0,0,0-3,1.15,4,4,0,0,0-1.15,2.92A3.86,3.86,0,0,0,692.87,37.08Z"/><path class="cls-1" d="M713.45,23.66a2.67,2.67,0,0,1-2,.84,2.81,2.81,0,0,1-2-.84,2.79,2.79,0,0,1,0-4,2.81,2.81,0,0,1,2-.84,2.67,2.67,0,0,1,2,.84,2.89,2.89,0,0,1,0,4Zm.15,3.82v21h-4.33v-21Z"/><path class="cls-1" d="M730.53,47.89a7.09,7.09,0,0,1-3.7,1q-5.6,0-5.59-6V31h-4.11V27.82h1.26q3.27,0,3.27-2.94V22.19h3.91v5.29h5.08V31h-5.08V42.47c0,1.74.68,2.61,2.06,2.61a3.32,3.32,0,0,0,1.85-.59Z"/><path class="cls-1" d="M750.39,42.89a2.23,2.23,0,0,0,.44,1.58,2,2,0,0,0,1.41.44v3.57h-.8c-2.29,0-3.71-.92-4.24-2.77A8.87,8.87,0,0,1,740,48.9a8.24,8.24,0,0,1-5.19-1.55,5.28,5.28,0,0,1-2-4.41q0-6.22,9.45-7l4-.3v-.5a5.22,5.22,0,0,0-1.07-3.47,3.7,3.7,0,0,0-3-1.28,4,4,0,0,0-3,1.13,4.81,4.81,0,0,0-1.28,2.69h-4.11a7.6,7.6,0,0,1,2.52-5.16,8.38,8.38,0,0,1,5.88-2,7.76,7.76,0,0,1,8.27,8.4Zm-9.91,2.52a6,6,0,0,0,4-1.47,5,5,0,0,0,1.72-4.07V38.78L743,39q-5.92.47-5.92,3.65a2.36,2.36,0,0,0,.94,2A4,4,0,0,0,740.48,45.41Z"/><path class="cls-1" d="M755.56,18.66h4.36V48.48h-4.36Z"/><path class="cls-1" d="M480.63,89.77a11.15,11.15,0,0,1-4.31,7,13.11,13.11,0,0,1-8.12,2.58,13.28,13.28,0,0,1-10.31-4.2A15.45,15.45,0,0,1,454,84.22a15.82,15.82,0,0,1,3.8-10.88,12.62,12.62,0,0,1,9.89-4.28,13.55,13.55,0,0,1,8.13,2.46,10.6,10.6,0,0,1,4.22,7.2h-4.74a7,7,0,0,0-2.63-4,8.07,8.07,0,0,0-4.89-1.43,7.87,7.87,0,0,0-6.49,3.13,12.16,12.16,0,0,0-2.46,7.75,11.77,11.77,0,0,0,2.52,7.86,8.45,8.45,0,0,0,6.81,3A8.18,8.18,0,0,0,473,93.61a7.5,7.5,0,0,0,2.85-3.84Z"/><path class="cls-1" d="M494.61,99.3a10.38,10.38,0,0,1-7.7-3.11,11.47,11.47,0,0,1,0-15.64,10.36,10.36,0,0,1,7.68-3.09,11.09,11.09,0,0,1,7.77,18.75A10.43,10.43,0,0,1,494.61,99.3ZM490,93.4a6.31,6.31,0,0,0,9.29,0,7.89,7.89,0,0,0,0-10,5.9,5.9,0,0,0-4.66-2,5.83,5.83,0,0,0-4.6,2,8,8,0,0,0,0,10Z"/><path class="cls-1" d="M532.2,77.5a6.82,6.82,0,0,1,5.34,2.21q2,2.21,2,6.57v12.6h-4.45V86.49a5.4,5.4,0,0,0-1.15-3.72,3.89,3.89,0,0,0-3-1.28,4,4,0,0,0-3,1.37,5.33,5.33,0,0,0-1.26,3.76V98.88h-4.45V86.74a5.86,5.86,0,0,0-1.18-3.9,3.64,3.64,0,0,0-2.9-1.39,4.17,4.17,0,0,0-3,1.32,5.12,5.12,0,0,0-1.33,3.76V98.88h-4.45v-21h3.4l.63,2.6h.38A6.43,6.43,0,0,1,516,78.32a7,7,0,0,1,3.49-.86,6.14,6.14,0,0,1,3.8,1.18,6.49,6.49,0,0,1,2.21,2.69h.37a7,7,0,0,1,2.38-2.74A6.85,6.85,0,0,1,532.2,77.5Z"/><path class="cls-1" d="M555,77.46a8.83,8.83,0,0,1,6.85,3.05,11.34,11.34,0,0,1,2.73,7.87,11.13,11.13,0,0,1-2.82,7.9,9.15,9.15,0,0,1-7,3q-4.5,0-6.3-3.23v11.21h-4.24V77.88h3.23l.63,2.77h.46A7.52,7.52,0,0,1,555,77.46Zm-.67,17.93a5.37,5.37,0,0,0,4.3-2,8.47,8.47,0,0,0,0-10.1,5.39,5.39,0,0,0-4.28-2,5.22,5.22,0,0,0-4.22,1.95,8.71,8.71,0,0,0,0,10.12A5.22,5.22,0,0,0,554.34,95.39Z"/><path class="cls-1" d="M585,93.3a2.21,2.21,0,0,0,.44,1.57,1.94,1.94,0,0,0,1.41.44v3.57h-.8q-3.45,0-4.24-2.77a8.9,8.9,0,0,1-7.23,3.19,8.21,8.21,0,0,1-5.18-1.55,5.28,5.28,0,0,1-2-4.41q0-6.23,9.45-7l4-.3v-.5a5.27,5.27,0,0,0-1.07-3.47,3.71,3.71,0,0,0-3-1.28,4,4,0,0,0-3,1.14,4.75,4.75,0,0,0-1.28,2.68h-4.12a7.69,7.69,0,0,1,2.52-5.16,8.42,8.42,0,0,1,5.88-2,8.28,8.28,0,0,1,6,2.21A8.17,8.17,0,0,1,585,85.86Zm-9.91,2.51a6,6,0,0,0,4-1.47,5,5,0,0,0,1.72-4.07V89.18l-3.19.25q-5.92.46-5.92,3.66a2.35,2.35,0,0,0,.94,2A4,4,0,0,0,575.09,95.81Z"/><path class="cls-1" d="M601.5,77.46a7.47,7.47,0,0,1,5.74,2.37c1.47,1.59,2.2,3.83,2.2,6.75v12.3H605V87.33a6.31,6.31,0,0,0-1.37-4.39A4.64,4.64,0,0,0,600,81.45a4.7,4.7,0,0,0-3.44,1.43,5.82,5.82,0,0,0-1.43,4.28V98.88h-4.49v-21H594l.63,2.6h.42A7.3,7.3,0,0,1,601.5,77.46Z"/><path class="cls-1" d="M628.68,77.88h4.49l-7.89,23.35a11.27,11.27,0,0,1-2.8,4.79,7,7,0,0,1-5,1.68,6.53,6.53,0,0,1-5-1.85l1.77-3.06a4.93,4.93,0,0,0,3.11,1.22,3.14,3.14,0,0,0,2.24-1,5.81,5.81,0,0,0,1.49-2.42l.59-1.76H620l-8.23-21h4.66l6.34,16.59h.42Z"/></g></g></svg>