<svg xmlns="http://www.w3.org/2000/svg" viewBox="0 0 75.04 75.04"><defs><style>.cls-1{fill:#fff;}</style></defs><title>logo_li</title><g id="Layer_2" data-name="Layer 2"><g id="Layer_1-2" data-name="Layer 1"><path class="cls-1" d="M64,64H52.83V46.53c0-4.15-.08-9.5-5.79-9.5s-6.68,4.53-6.68,9.2V64H29.24V28.13H39.92V33h.15A11.67,11.67,0,0,1,50.6,27.25c11.27,0,13.35,7.41,13.35,17ZM16.7,23.24a6.46,6.46,0,1,1,6.45-6.46h0a6.46,6.46,0,0,1-6.45,6.46M22.26,64H11.13V28.13H22.26ZM69.49,0H5.54A5.49,5.49,0,0,0,0,5.41V69.63A5.48,5.48,0,0,0,5.54,75h64A5.48,5.48,0,0,0,75,69.63V5.41A5.48,5.48,0,0,0,69.49,0"/></g></g></svg>